Coordinates
version=1
nRows=5
nColumns=46
inDegrees=yes

Units are S.I. units (second, meters, Newtons, ...)
Angles are in degrees.

endheader
time	pelvis_tilt	pelvis_list	pelvis_rotation	pelvis_tx	pelvis_ty	pelvis_tz	bb_angle	bb_tx	bb_ty	bb_tz	hip_flexion_r	hip_adduction_r	hip_rotation_r	knee_angle_r	knee_angle_r_beta	ankle_angle_r	subtalar_angle_r	mtp_angle_r	crank_angle_r	hip_flexion_l	hip_adduction_l	hip_rotation_l	knee_angle_l	knee_angle_l_beta	ankle_angle_l	subtalar_angle_l	mtp_angle_l	crank_angle_l	lumbar_extension	lumbar_bending	lumbar_rotation	arm_flex_r	arm_add_r	arm_rot_r	elbow_flex_r	pro_sup_r	wrist_flex_r	wrist_dev_r	arm_flex_l	arm_add_l	arm_rot_l	elbow_flex_l	pro_sup_l	wrist_flex_l	wrist_dev_l
      7.50500000	    -22.04506812	     -4.48310762	     -6.31304054	      0.14519980	      1.07642964	     -0.21870135	      0.00000000	      0.50000000	      0.00000000	      0.25000000	     93.63111064	      4.49190185	      1.28136381	     98.82891645	      1.72488999	     -2.59327983	    -11.55908083	      0.00000000	      0.00000000	     46.40310546	    -12.49360917	     -5.69566763	     44.29705161	      0.77312940	    -31.86601356	    -17.81538607	      0.00000000	      0.00000000	    -61.61242904	     -0.48204067	      3.71798404	     89.43291062	    -13.40520690	     26.98115527	     72.36458584	     39.83639411	      0.00000000	      0.00000000	     85.28163337	    -13.06278434	      9.95819479	     72.08902862	     45.99786796	      0.00000000	      0.00000000
      7.51000000	    -22.55435699	     -4.74920457	     -5.95768798	      0.14455216	      1.07562083	     -0.21985134	      0.00000000	      0.50000000	      0.00000000	      0.25000000	     92.98565280	      4.25493455	      1.15816820	     96.72357665	      1.68814488	     -0.81724721	    -10.95954013	      0.00000000	      0.00000000	     48.01707341	    -12.35926397	     -4.63351180	     46.89358944	      0.81844753	    -31.94814508	    -19.17659006	      0.00000000	      0.00000000	    -61.37326468	      0.14981740	      3.93045441	     89.41677955	    -13.20461410	     26.37584174	     73.08628814	     39.80107815	      0.00000000	      0.00000000	     84.85524006	    -13.03701198	      9.32911480	     73.32284766	     46.20644500	      0.00000000	      0.00000000
      7.51500000	    -22.59880351	     -4.57999467	     -5.76173584	      0.14431818	      1.07560201	     -0.22051721	      0.00000000	      0.50000000	      0.00000000	      0.25000000	     91.79772595	      4.16386523	      1.41018507	     94.50790026	      1.64947403	      0.45222636	    -11.12723130	      0.00000000	      0.00000000	     48.95091152	    -12.06200924	     -4.20724424	     49.34590839	      0.86124857	    -31.84062059	    -19.91071854	      0.00000000	      0.00000000	    -61.49753782	      0.10751636	      3.49873426	     89.40827993	    -13.16301555	     26.23332456	     73.32333728	     39.77997552	      0.00000000	      0.00000000	     85.02099864	    -13.06655411	      9.12579540	     73.80492193	     46.29384754	      0.00000000	      0.00000000
      7.52000000	    -22.71165946	     -4.43274958	     -5.42844871	      0.14411187	      1.07511087	     -0.22134305	      0.00000000	      0.50000000	      0.00000000	      0.25000000	     90.60710256	      3.87637435	      1.56177315	     92.21683575	      1.60948741	      1.66897693	    -11.30748569	      0.00000000	      0.00000000	     50.10977457	    -11.67587084	     -3.58496640	     51.99020205	      0.90740020	    -31.61302364	    -20.48069588	      0.00000000	      0.00000000	    -61.49551175	      0.24144261	      3.08309167	     89.38789891	    -12.99887144	     25.95432898	     73.60912835	     39.71966113	      0.00000000	      0.00000000	     84.87054003	    -13.24124945	      9.01446074	     74.49358238	     46.45201397	      0.00000000	      0.00000000
      7.52500000	    -22.68821406	     -3.99051883	     -5.22107007	      0.14420906	      1.07486107	     -0.22203361	      0.00000000	      0.50000000	      0.00000000	      0.25000000	     89.24997636	      3.69038197	      2.01551795	     89.80082578	      1.56732008	      2.45272959	    -11.66346408	      0.00000000	      0.00000000	     51.01494539	    -11.18006934	     -3.38270752	     54.57758102	      0.95255849	    -31.32525282	    -21.02209281	      0.00000000	      0.00000000	    -61.56631154	      0.02288859	      2.45450020	     89.35870567	    -13.03864852	     25.83690431	     73.69177820	     39.70930129	      0.00000000	      0.00000000	     84.97277934	    -13.22261915	      9.03932253	     74.67401343	     46.49417357	      0.00000000	      0.00000000
